<svg xmlns="http://www.w3.org/2000/svg" viewBox="0 0 68 68"><defs><style>.cls-1{fill:#00b0b1;}.cls-2{fill:#fff;}</style></defs><g id="icon"><circle class="cls-1" cx="34" cy="34" r="34"/><polygon class="cls-2" points="33.55 25 33.55 32.69 30.68 26.68 29.32 27.32 33.62 36.32 34.94 36.39 38.64 30.39 37.36 29.61 35.05 33.35 35.05 25 33.55 25"/><path class="cls-2" d="M14,33a6,6,0,0,0-6,6H20A6,6,0,0,0,14,33Z"/><path class="cls-2" d="M25,32a4,4,0,0,0-4,4h8A4,4,0,0,0,25,32Z"/><path class="cls-2" d="M46,25.23c-2.16,0-3.19,0-3.68-.09a20.43,20.43,0,0,0-4.23-6,21.47,21.47,0,0,1,5.19-2.82c1.71,0,11.59,6.91,11.59,11.6h1.5c0-5.44-10.43-13.1-13.09-13.1-1.14,0-4.44,2-6.27,3.24-4-3.76-8.75-6.67-10.59-6.67-3.36,0-16.53,9.67-16.53,16.53h1.5c0-6.08,12.8-15,15-15s15,9,15,15h1.5a6.48,6.48,0,0,0-.33-2c1.08,0,3.46.32,6.39,3,4,3.7,0,7.76-11,10-20.12,4.19-25.48,8.38-26.1,13.17A28,28,0,0,0,34,63c.74,0,1.46,0,2.18-.09C31.18,59.75,35.24,52.4,40,49c7-5,8-4,14-10C62,31,50,25.23,46,25.23Z"/></g></svg>