<svg xmlns="http://www.w3.org/2000/svg" viewBox="0 0 68 68"><defs><style>.cls-1{fill:#00183a;}.cls-2{fill:#c50000;}</style></defs><g id="icon"><path class="cls-1" d="M46,37.38a16.6,16.6,0,0,1-5.39-.53l-.06,0c-1.91-.49-3.77-1.17-5.67-1.72a24.26,24.26,0,0,0-13.17-.28A24,24,0,0,0,17,36.64c.41.5.83,1,1.27,1.44a29.44,29.44,0,0,1,5.18-.46,28.53,28.53,0,0,1,3.48.21c.8.09,1.59.22,2.36.37h-.54a29.47,29.47,0,0,0-8.89,1.37c.53.45,1.08.88,1.65,1.28.92-.09,1.86-.14,2.8-.14a29,29,0,0,1,6.57.75,25.09,25.09,0,0,0-6.64,1A21.78,21.78,0,0,0,41.13,43.6l.29-.1c.59-.21,1.17-.46,1.74-.72-1.11-.62-2.25-1.19-3.42-1.7.59,0,1.19.06,1.79.07h.38a36.77,36.77,0,0,0,4.6-.29,21.92,21.92,0,0,0,2.07-1.64h0c-.18.16-1.07,0-1.31.06-.44,0-.88,0-1.32,0a35.51,35.51,0,0,1-8.53-1.11,35.69,35.69,0,0,0,5.61.44A36,36,0,0,0,49.9,38c.34-.36.67-.73,1-1.11-.29.35-2,.36-2.5.41C47.57,37.34,46.77,37.32,46,37.38Z"/><path class="cls-2" d="M38.25,13.6l.28,0c2,0,4.28,1.58,4.23,3.78a3.19,3.19,0,0,1-2.21,2.95h0a5.53,5.53,0,0,0-1.77,1,2.47,2.47,0,0,1,1.5.94,2.5,2.5,0,0,1,.34.62,2.46,2.46,0,0,1,2.63-.41c-.07,0,.44-.78.49-.85A2.66,2.66,0,0,1,44.4,21a2.76,2.76,0,0,1,3.19.31,3.21,3.21,0,0,1,6,.42,1.85,1.85,0,0,1,.48-.07A1.91,1.91,0,0,1,55.9,22.9,22,22,0,0,0,55,16.73a34.53,34.53,0,0,0-9.65-8.27A34.46,34.46,0,0,0,38.25,13.6Z"/><polygon class="cls-2" points="38.98 14.95 38.98 14.95 38.98 14.95 38.98 14.95"/><path class="cls-2" d="M49.93,28.67c-1-.37-2.06-.7-3.11-1-.6-.16-1.2-.31-1.81-.44a37.26,37.26,0,0,0-27.2,4.47c-1,.6-2,1.23-2.89,1.92.31.55.65,1.08,1,1.6a18.69,18.69,0,0,1,3.46-2.15,18,18,0,0,1,3-1.11,18.68,18.68,0,0,1,1.83-.42,19,19,0,0,1,3.13-.26,18.19,18.19,0,0,1,2.35.15A18.42,18.42,0,0,1,35.16,33h0a24.69,24.69,0,0,0,10.75,2.45,24.52,24.52,0,0,0,6.57-.89,21,21,0,0,0,2-3.91C54.54,30.49,50.37,28.83,49.93,28.67Z"/><path class="cls-2" d="M55.75,23.67A1.48,1.48,0,0,0,53,23.55a2.58,2.58,0,1,0-5.06-1,3.46,3.46,0,0,0-1.68-1.05,2.12,2.12,0,0,0-1.5.24,2.19,2.19,0,0,0-.89,2.58,1.79,1.79,0,0,0-3.46-.1,2.17,2.17,0,0,0-1.2-1.92,2.11,2.11,0,0,0-3,2.41A37,37,0,0,1,55,29.18a21.46,21.46,0,0,0,.84-4.41,4.71,4.71,0,0,0,0-.65A1.78,1.78,0,0,0,55.75,23.67Z"/><path class="cls-2" d="M19.26,29.46c.54-.31,1.09-.6,1.64-.88a37.56,37.56,0,0,1,4.52-1.91l.65-.21c.08-.2.16-.4.25-.6a13.1,13.1,0,0,1,7.14-6.74c.22-.09.44-.17.67-.24a12.41,12.41,0,0,1,2.08-.52A6.62,6.62,0,0,0,38.43,18a2,2,0,0,0,1-2.11,3,3,0,0,0-.92-1.46A36.07,36.07,0,0,0,27.06,6.87,35.24,35.24,0,0,0,21.4,9.8l-.24.15a34.89,34.89,0,0,0-6.37,5.31,22.4,22.4,0,0,1,6.56-7.8l.56-.4a22.16,22.16,0,0,1,30.17,4.58h.7A21.89,21.89,0,0,0,22.86,4.05c-.33.19-.66.4-1,.61A21.93,21.93,0,0,0,13.1,16.35a21.71,21.71,0,0,0-.89,4.37c-.07.72-.11,1.44-.11,2.18s.05,1.49.12,2.22.16,1.28.28,1.9a21.44,21.44,0,0,0,1.94,5.7c.8-.65,1.64-1.26,2.5-1.84S18.47,29.91,19.26,29.46Zm7.43-10.73c0-.07,0-.08.08-.08h.41c.05,0,.07,0,.07.06v2.63c0,.05,0,.06-.06.06h-.48a.09.09,0,0,1-.08,0l-1-1.74,0-.06h0v.07c0,.57,0,1.13,0,1.69,0,.06,0,.08-.08.08h-.42c-.05,0-.07,0-.07-.06Q25,20,25,18.7s0-.05.06-.05h.47a.1.1,0,0,1,.1.05l.85,1.46a2.64,2.64,0,0,0,.23.35V18.73Zm-11.59,2A5.82,5.82,0,0,1,20,14.14a5.91,5.91,0,0,1,5.95,2.76c.12.2.06.23-.14.23H24.45a.43.43,0,0,1-.33-.15,4.21,4.21,0,0,0-4.34-1.26A4.16,4.16,0,0,0,16.64,19a4.34,4.34,0,0,0,3.64,5.26A4.25,4.25,0,0,0,24,23c.06-.06.1-.14.2-.14H26a3.75,3.75,0,0,1-.64.92,5.64,5.64,0,0,1-6.11,1.75A5.55,5.55,0,0,1,15.1,20.73Zm7.67-.56a1.16,1.16,0,0,0,.09.41.61.61,0,0,0,.69.38.57.57,0,0,0,.51-.42c0-.07.05-.08.12-.08h.43s.06,0,.05.05a1.11,1.11,0,0,1-.85.91,1.32,1.32,0,0,1-1.14-.19,1.17,1.17,0,0,1-.44-.67,2,2,0,0,1,.05-1.21,1.15,1.15,0,0,1,.89-.74,1.4,1.4,0,0,1,1,.12,1,1,0,0,1,.53.73c0,.08,0,.09-.08.09h-.41c-.07,0-.09,0-.11-.08a.47.47,0,0,0-.36-.36.67.67,0,0,0-.89.5A1.5,1.5,0,0,0,22.77,20.17Zm-3.25-.61v-.93c0-.05,0-.07.07-.07h.47c.05,0,.06,0,.06.06v1.74a.76.76,0,0,0,0,.21.49.49,0,0,0,.54.32.86.86,0,0,0,.17,0,.44.44,0,0,0,.33-.46V18.65c0-.1,0-.09.09-.09h.44c.05,0,.07,0,.07.06v1.74a1.19,1.19,0,0,1-.2.66.91.91,0,0,1-.55.32,1.61,1.61,0,0,1-.87,0,.83.83,0,0,1-.64-.86c0-.3,0-.59,0-.88Zm-1.11-.84c0-.06,0-.07.07-.07h.46c.06,0,.07,0,.07.07v2.6c0,.06,0,.08-.08.08h-.44c-.06,0-.08,0-.08-.08,0-.61,0-1.21,0-1.82C18.41,19.24,18.42,19,18.41,18.72Z"/><path class="cls-2" d="M7.89,52.4h3a2,2,0,0,1,1.55.55,2.09,2.09,0,0,1,.52,1.5,1.81,1.81,0,0,1-.28,1,1.93,1.93,0,0,1-.79.68.75.75,0,0,1,.17.19,2,2,0,0,1,.17.31l.66,1.51H11.14l-.61-1.38a.54.54,0,0,0-.18-.23.59.59,0,0,0-.29-.07H9.58v1.68H7.89Zm2.58,2.79A.81.81,0,0,0,11,55a.72.72,0,0,0,.21-.55c0-.51-.24-.76-.72-.76H9.58v1.5Z"/><path class="cls-2" d="M13.78,52.4h4.4v1.29h-2.7v.93h2.36v1.31H15.48v.94h2.7v1.28h-4.4Z"/><path class="cls-2" d="M18.9,52.4h2.59a2.92,2.92,0,0,1,2.1.69,3,3,0,0,1,.72,2.22,2.86,2.86,0,0,1-.72,2.15,2.92,2.92,0,0,1-2.1.69H18.9Zm2.37,4.47a1.84,1.84,0,0,0,.73-.13.87.87,0,0,0,.43-.47,2.4,2.4,0,0,0,.15-1,2.79,2.79,0,0,0-.14-1,.85.85,0,0,0-.42-.5,1.59,1.59,0,0,0-.75-.14h-.68v3.18Z"/><path class="cls-2" d="M28.36,52.4h1.69v4.47h2.61v1.28h-4.3Z"/><path class="cls-2" d="M33.29,52.4H35v5.75H33.29Z"/><path class="cls-2" d="M36.75,58.15a3.68,3.68,0,0,1-.88-.26V56.5a4.86,4.86,0,0,0,.91.31,4.5,4.5,0,0,0,.92.11,2.29,2.29,0,0,0,.7-.08.33.33,0,0,0,.21-.34.38.38,0,0,0-.1-.26.82.82,0,0,0-.31-.18l-.63-.21-.21-.06a4.17,4.17,0,0,1-.93-.41,1.28,1.28,0,0,1-.49-.55,1.82,1.82,0,0,1-.15-.79,1.52,1.52,0,0,1,.61-1.29,3.1,3.1,0,0,1,1.8-.44,6.67,6.67,0,0,1,1,.08,5.46,5.46,0,0,1,.84.18V54a4.36,4.36,0,0,0-1.54-.31,2.58,2.58,0,0,0-.71.07.3.3,0,0,0-.24.31.3.3,0,0,0,.1.25.7.7,0,0,0,.3.15,6.76,6.76,0,0,0,.69.19,3.49,3.49,0,0,1,1.07.46,1.38,1.38,0,0,1,.51.6,2,2,0,0,1,.15.82,1.49,1.49,0,0,1-.63,1.27,3,3,0,0,1-1.84.47A6.6,6.6,0,0,1,36.75,58.15Z"/><path class="cls-2" d="M42.19,53.65H40.56V52.4h4.95v1.25H43.88v4.5H42.19Z"/><path class="cls-2" d="M50,57.53a3,3,0,0,1-.75-2.24A3,3,0,0,1,50,53a3.81,3.81,0,0,1,4.43,0,3.76,3.76,0,0,1,0,4.51,3.81,3.81,0,0,1-4.43,0Zm3.15-1.08a1.79,1.79,0,0,0,.3-1.16,1.92,1.92,0,0,0-.29-1.19,1.42,1.42,0,0,0-1.89,0,1.92,1.92,0,0,0-.29,1.19,1.86,1.86,0,0,0,.29,1.16,1.15,1.15,0,0,0,.94.36A1.12,1.12,0,0,0,53.1,56.45Z"/><path class="cls-2" d="M55.94,52.4h4.35v1.25H57.63v1H60v1.27H57.63v2.24H55.94Z"/><path class="cls-1" d="M6.81,61.16H11.2v1.28H8.5v.94h2.37v1.31H8.5v.93h2.7v1.29H6.81Z"/><path class="cls-1" d="M12.57,66.24a2.83,2.83,0,0,1-.83-2.18,2.88,2.88,0,0,1,.82-2.22,3.33,3.33,0,0,1,2.4-.77,5.26,5.26,0,0,1,.93.07,5.67,5.67,0,0,1,.85.23v1.47a4,4,0,0,0-1.66-.34,1.71,1.71,0,0,0-1.22.37,1.59,1.59,0,0,0-.39,1.19,1.48,1.48,0,0,0,.41,1.15,1.8,1.8,0,0,0,1.22.36,4.12,4.12,0,0,0,1.65-.33v1.47A5.45,5.45,0,0,1,15,67,3.41,3.41,0,0,1,12.57,66.24Z"/><path class="cls-1" d="M18.13,66.29a3,3,0,0,1-.75-2.24,3,3,0,0,1,.75-2.28,3.1,3.1,0,0,1,2.22-.7,3,3,0,0,1,2.21.71,3.76,3.76,0,0,1,0,4.51,3.12,3.12,0,0,1-2.21.71A3.13,3.13,0,0,1,18.13,66.29Zm3.16-1.08a1.88,1.88,0,0,0,.29-1.16,2,2,0,0,0-.29-1.2,1.16,1.16,0,0,0-.94-.35,1.17,1.17,0,0,0-1,.35,2,2,0,0,0-.29,1.2,1.88,1.88,0,0,0,.29,1.16,1.16,1.16,0,0,0,1,.36A1.15,1.15,0,0,0,21.29,65.21Z"/><path class="cls-1" d="M24.49,66.91a3.66,3.66,0,0,1-.88-.27V65.26a5.71,5.71,0,0,0,.91.3,3.94,3.94,0,0,0,.92.12,2,2,0,0,0,.7-.09.32.32,0,0,0,.21-.33.41.41,0,0,0-.1-.27,1,1,0,0,0-.31-.17,4.51,4.51,0,0,0-.63-.21l-.21-.07a3.42,3.42,0,0,1-.93-.41,1.32,1.32,0,0,1-.49-.54,1.82,1.82,0,0,1-.15-.79,1.5,1.5,0,0,1,.61-1.29,3,3,0,0,1,1.8-.44,6.61,6.61,0,0,1,1,.07,4.41,4.41,0,0,1,.84.19v1.39a4.11,4.11,0,0,0-1.54-.31,2.58,2.58,0,0,0-.71.07.3.3,0,0,0-.24.31.3.3,0,0,0,.1.24.92.92,0,0,0,.3.16l.69.19a3.77,3.77,0,0,1,1.07.45,1.46,1.46,0,0,1,.51.61,2,2,0,0,1,.15.82,1.5,1.5,0,0,1-.63,1.27,3.06,3.06,0,0,1-1.84.47A6.6,6.6,0,0,1,24.49,66.91Z"/><path class="cls-1" d="M30.39,64.8,28.3,61.16h1.77l1.17,2.17,1.17-2.17h1.76L32.08,64.8v2.11H30.39Z"/><path class="cls-1" d="M35.18,66.91a3.52,3.52,0,0,1-.88-.27V65.26a5.39,5.39,0,0,0,.91.3,3.86,3.86,0,0,0,.91.12,1.93,1.93,0,0,0,.7-.09.32.32,0,0,0,.21-.33.36.36,0,0,0-.1-.27,1,1,0,0,0-.3-.17,4.51,4.51,0,0,0-.63-.21l-.22-.07a3.72,3.72,0,0,1-.93-.41,1.39,1.39,0,0,1-.49-.54,2,2,0,0,1-.14-.79,1.47,1.47,0,0,1,.61-1.29,3,3,0,0,1,1.8-.44,6.71,6.71,0,0,1,1,.07,4.59,4.59,0,0,1,.84.19v1.39a4.15,4.15,0,0,0-1.54-.31,2.62,2.62,0,0,0-.72.07.3.3,0,0,0-.24.31A.33.33,0,0,0,36,63a1,1,0,0,0,.3.16l.69.19a3.65,3.65,0,0,1,1.07.45,1.48,1.48,0,0,1,.52.61,2.19,2.19,0,0,1,.14.82,1.52,1.52,0,0,1-.62,1.27A3.06,3.06,0,0,1,36.3,67,6.6,6.6,0,0,1,35.18,66.91Z"/><path class="cls-1" d="M40.62,62.41H39V61.16h4.95v1.25H42.31v4.5H40.62Z"/><path class="cls-1" d="M44.57,61.16H49v1.28h-2.7v.94h2.37v1.31H46.26v.93H49v1.29H44.57Z"/><path class="cls-1" d="M49.68,61.16h1.65l1.44,2.92,1.43-2.92h1.64v5.75h-1.7V64l-.92,1.9h-.91L51.37,64v2.88H49.68Z"/><path class="cls-1" d="M57.61,66.91a3.52,3.52,0,0,1-.88-.27V65.26a5.39,5.39,0,0,0,.91.3,3.86,3.86,0,0,0,.91.12,1.93,1.93,0,0,0,.7-.09.32.32,0,0,0,.21-.33.36.36,0,0,0-.1-.27,1,1,0,0,0-.3-.17,4.51,4.51,0,0,0-.63-.21l-.22-.07a3.72,3.72,0,0,1-.93-.41,1.29,1.29,0,0,1-.48-.54,1.82,1.82,0,0,1-.15-.79,1.47,1.47,0,0,1,.61-1.29,3,3,0,0,1,1.8-.44,6.71,6.71,0,0,1,1,.07,4.41,4.41,0,0,1,.84.19v1.39a4.15,4.15,0,0,0-1.54-.31,2.62,2.62,0,0,0-.72.07.3.3,0,0,0-.24.31.33.33,0,0,0,.1.24,1,1,0,0,0,.31.16l.68.19a3.65,3.65,0,0,1,1.07.45,1.48,1.48,0,0,1,.52.61,2.19,2.19,0,0,1,.14.82,1.52,1.52,0,0,1-.62,1.27,3.06,3.06,0,0,1-1.84.47A6.6,6.6,0,0,1,57.61,66.91Z"/></g></svg>