<svg xmlns="http://www.w3.org/2000/svg" viewBox="0 0 68 68"><defs><style>.cls-1{fill:#fff;}</style></defs><g id="icon"><path class="cls-1" d="M46,48.49A16.6,16.6,0,0,1,40.59,48l-.06,0c-1.91-.48-3.77-1.17-5.67-1.71a24.26,24.26,0,0,0-13.17-.29A24,24,0,0,0,17,47.74c.41.5.83,1,1.27,1.44a29.44,29.44,0,0,1,5.18-.46,28.53,28.53,0,0,1,3.48.21c.8.09,1.59.22,2.36.38h-.54a29.17,29.17,0,0,0-8.89,1.38c.53.45,1.08.87,1.65,1.27.92-.08,1.86-.13,2.8-.13a29.6,29.6,0,0,1,6.57.74,25.51,25.51,0,0,0-6.64,1A21.79,21.79,0,0,0,38.4,55.45a20.33,20.33,0,0,0,2.73-.75l.29-.1c.59-.21,1.17-.45,1.74-.71a34,34,0,0,0-3.42-1.7c.59,0,1.19.05,1.79.06h.38a36.76,36.76,0,0,0,4.6-.3,21.82,21.82,0,0,0,2.07-1.63h0c-.18.15-1.07,0-1.31.06H46a35.52,35.52,0,0,1-8.53-1.12,35.69,35.69,0,0,0,5.61.44,36,36,0,0,0,6.85-.66c.34-.36.67-.73,1-1.11-.29.36-2,.36-2.5.41C47.57,48.44,46.77,48.43,46,48.49Z"/><path class="cls-1" d="M38.25,24.7h.28c2,0,4.28,1.58,4.23,3.78a3.2,3.2,0,0,1-2.21,3h0a5.32,5.32,0,0,0-1.77,1,2.47,2.47,0,0,1,1.5.94,2.39,2.39,0,0,1,.34.63,2.45,2.45,0,0,1,1.64-.62,2.5,2.5,0,0,1,1,.2c-.07,0,.44-.78.49-.84a2.69,2.69,0,0,1,.71-.59,2.78,2.78,0,0,1,3.19.31,3.21,3.21,0,0,1,6,.42,1.86,1.86,0,0,1,.48-.06A1.89,1.89,0,0,1,55.9,34,22.07,22.07,0,0,0,55,27.83a34.86,34.86,0,0,0-9.65-8.27A34.83,34.83,0,0,0,38.25,24.7Z"/><polygon class="cls-1" points="38.98 26.05 38.98 26.05 38.98 26.05 38.98 26.05"/><path class="cls-1" d="M49.93,39.78c-1-.38-2.06-.71-3.11-1-.6-.17-1.2-.31-1.81-.45a37.4,37.4,0,0,0-27.2,4.47c-1,.6-2,1.24-2.89,1.92.31.55.65,1.08,1,1.6a19.19,19.19,0,0,1,3.46-2.14,18.07,18.07,0,0,1,3-1.12,16.14,16.14,0,0,1,1.83-.41,18,18,0,0,1,3.13-.27,18.18,18.18,0,0,1,2.35.16,17.86,17.86,0,0,1,5.49,1.6h0A24.92,24.92,0,0,0,52.5,45.71a21.66,21.66,0,0,0,2-3.91C54.54,41.6,50.37,39.94,49.93,39.78Z"/><path class="cls-1" d="M55.75,34.77A1.49,1.49,0,0,0,53,34.65a2.58,2.58,0,1,0-5.06-1,3.62,3.62,0,0,0-1.68-1,2.1,2.1,0,0,0-2.39,2.82A1.85,1.85,0,0,0,42.15,34a1.81,1.81,0,0,0-1.76,1.29,2.19,2.19,0,0,0-1.2-1.93,2.11,2.11,0,0,0-3,2.41A37.13,37.13,0,0,1,55,40.29a21.43,21.43,0,0,0,.84-4.42,4.56,4.56,0,0,0,0-.64A1.77,1.77,0,0,0,55.75,34.77Z"/><path class="cls-1" d="M19.26,40.57c.54-.31,1.09-.61,1.64-.89a36,36,0,0,1,4.52-1.9l.65-.22c.08-.2.16-.4.25-.59a13.15,13.15,0,0,1,7.14-6.75l.67-.24a12.41,12.41,0,0,1,2.08-.52,6.38,6.38,0,0,0,2.22-.36,2,2,0,0,0,1-2.11,3,3,0,0,0-.92-1.46A36,36,0,0,0,27.06,18,34.4,34.4,0,0,0,21.4,20.9l-.24.16a34.49,34.49,0,0,0-6.37,5.31,22.31,22.31,0,0,1,6.56-7.8l.56-.4a22.14,22.14,0,0,1,30.17,4.58h.7a21.88,21.88,0,0,0-29.92-7.6c-.33.2-.66.4-1,.62a21.85,21.85,0,0,0-9.67,16.06c-.07.71-.11,1.44-.11,2.17s.05,1.49.12,2.22.16,1.28.28,1.91a21.25,21.25,0,0,0,1.94,5.69c.8-.64,1.64-1.26,2.5-1.83S18.47,41,19.26,40.57Zm7.43-10.74c0-.06,0-.08.08-.08s.27,0,.41,0,.07,0,.07.06v2.63c0,.05,0,.06-.06.06h-.48a.07.07,0,0,1-.08,0l-1-1.74,0-.05h0v.08c0,.56,0,1.12,0,1.69,0,0,0,.07-.08.07h-.42c-.05,0-.07,0-.07-.06,0-.88,0-1.75,0-2.63,0,0,0-.06.06-.06s.31,0,.47,0,.07,0,.1.06l.85,1.46c.07.11.14.23.23.35V29.83Zm-11.59,2A5.83,5.83,0,0,1,20,25.24,5.9,5.9,0,0,1,25.93,28c.12.2.06.23-.14.22-.45,0-.89,0-1.34,0a.42.42,0,0,1-.33-.14,4.21,4.21,0,0,0-4.34-1.26,4.15,4.15,0,0,0-3.14,3.3,4.34,4.34,0,0,0,3.64,5.26A4.28,4.28,0,0,0,24,34.13c.06-.06.1-.14.2-.14H26a4.18,4.18,0,0,1-.64.92,5.66,5.66,0,0,1-6.11,1.75A5.55,5.55,0,0,1,15.1,31.83Zm7.67-.55a1.21,1.21,0,0,0,.09.41.61.61,0,0,0,.69.38.56.56,0,0,0,.51-.43c0-.06.05-.08.12-.08s.29,0,.43,0,.06,0,.05.06a1.14,1.14,0,0,1-.85.91,1.32,1.32,0,0,1-1.14-.2,1.17,1.17,0,0,1-.44-.67,2,2,0,0,1,.05-1.21,1.13,1.13,0,0,1,.89-.73,1.4,1.4,0,0,1,1,.12,1,1,0,0,1,.53.72c0,.09,0,.1-.08.1h-.21a1.33,1.33,0,0,0-.2,0,.09.09,0,0,1-.11-.08.49.49,0,0,0-.36-.37.68.68,0,0,0-.89.51A1.5,1.5,0,0,0,22.77,31.28Zm-3.25-.62v-.93c0-.05,0-.07.07-.07a3.69,3.69,0,0,0,.47,0c.05,0,.06,0,.06.07v1.73a.78.78,0,0,0,0,.22.47.47,0,0,0,.54.31.47.47,0,0,0,.17,0,.42.42,0,0,0,.33-.46V29.75c0-.1,0-.09.09-.09h.44c.05,0,.07,0,.07.06v1.75a1.16,1.16,0,0,1-.2.65.87.87,0,0,1-.55.32,1.44,1.44,0,0,1-.87,0,.82.82,0,0,1-.64-.86c0-.29,0-.58,0-.88Zm-1.11-.84c0-.06,0-.07.07-.07a3.53,3.53,0,0,0,.46,0c.06,0,.07,0,.07.07v2.6c0,.07,0,.08-.08.08h-.44c-.06,0-.08,0-.08-.08,0-.6,0-1.21,0-1.81C18.41,30.35,18.42,30.08,18.41,29.82Z"/></g></svg>