<svg width="72" height="66" viewBox="0 0 320 300" fill="none" xmlns="http://www.w3.org/2000/svg">
<mask id="mask0_56_61" style="mask-type:alpha" maskUnits="userSpaceOnUse" x="0" y="0" width="282" height="300">
<path d="M233.197 225.41C231.967 226.639 230.738 228.279 229.098 229.508C208.607 250 180.738 262.295 150 262.295C118.852 262.295 90.9836 249.59 70.9016 229.508C50.4098 209.016 38.1148 181.148 38.1148 150.41C38.1148 119.262 50.8197 91.3934 70.9016 71.3115C91.3934 50.8197 119.262 38.5246 150 38.5246C181.148 38.5246 209.016 51.2295 229.098 71.3115C231.557 73.7705 233.607 76.2295 235.656 78.6885H281.557C256.557 31.5574 206.967 0 150 0C67.2131 0 0 67.2131 0 150C0 232.787 67.2131 300 150 300C205.328 300 254.098 270.082 279.918 225H233.197" fill="black"></path>
</mask>
<g mask="url(#mask0_56_61)">
<rect width="300" height="300" fill="url(#paint0_radial_56_61)"></rect>
</g>
<path d="M146.836 160.443C146.836 179.295 135.77 188.721 116.918 188.721C98.0656 188.721 87 179.705 87 160.443V117H102.574V160.443C102.574 168.23 104.623 175.607 116.918 175.607C127.984 175.607 131.262 170.689 131.262 160.443V117H146.836V160.443Z" fill="black"></path>
<path d="M171.574 117H156V187.082H171.574V117Z" fill="black"></path>
<path d="M229.918 140.984C229.098 134.016 222.131 128.688 214.754 128.688C200.82 128.688 195.902 140.574 195.902 152.869C195.902 164.754 201.23 176.229 214.754 176.229C224.18 176.229 229.508 169.672 230.738 160.656H245.492C243.852 178.279 231.967 189.344 214.754 189.344C193.033 189.344 180.328 172.951 180.328 152.869C180.328 131.967 193.033 115.984 214.754 115.984C230.328 115.984 243.033 125 245.082 141.393H229.918" fill="black"></path>
<path d="M254.098 117.213H269.262L298.771 164.344V117.213H313.525V187.295H297.951L268.852 140.574H268.443V187.295H254.098V117.213Z" fill="black"></path>
<defs>
<radialGradient id="paint0_radial_56_61" cx="0" cy="0" r="1" gradientUnits="userSpaceOnUse" gradientTransform="translate(61 61) rotate(45) scale(307.591)">
<stop stop-color="white"></stop>
<stop offset="0.372385" stop-color="#05BCE4"></stop>
<stop offset="1" stop-color="#003478"></stop>
</radialGradient>
</defs>
</svg>