<svg xmlns="http://www.w3.org/2000/svg" viewBox="0 0 68 68"><defs><style>.cls-1{fill:#006ccc;}.cls-2{fill:#fff;}</style></defs><g id="background"><circle class="cls-1" cx="34" cy="34" r="34"/></g><g id="Layer_3" data-name="Layer 3"><path class="cls-2" d="M51.56,35A1.44,1.44,0,1,0,53,36.39,1.44,1.44,0,0,0,51.56,35Z"/><path class="cls-2" d="M28.2,49.4A5.6,5.6,0,0,0,22.6,55H33.8A5.6,5.6,0,0,0,28.2,49.4Z"/><path class="cls-2" d="M29.37,16.24a49.19,49.19,0,0,1,10.56,3.09,20.15,20.15,0,0,0,8.57,1.92c6.78,0,9-2.67,9.09-2.78l-1.17-.95s-2,2.23-7.92,2.23a18.69,18.69,0,0,1-8-1.81,50.39,50.39,0,0,0-10.86-3.18c-11.2-2-19.73,4.37-20.09,4.64l.92,1.2C10.54,20.53,18.84,14.32,29.37,16.24Z"/><path class="cls-2" d="M57.57,35.62a23.15,23.15,0,0,0-8.66-4.15l-3.6-2.55a2.26,2.26,0,0,0-2.91.25l-3.18,3.18a22.54,22.54,0,0,0-3.68,1.83l-7.39-2a1.33,1.33,0,0,0-1.43.48,1.34,1.34,0,0,0-.07,1.51L29,37.94l-2.31,3.79a1.34,1.34,0,0,0,1.14,2,1.49,1.49,0,0,0,.36-.05l7.46-2a21.57,21.57,0,0,0,6.28,2.6l-.2.4a1.87,1.87,0,0,0,1.66,2.7h2.18a1.87,1.87,0,0,0,1.86-1.87V44.6a22,22,0,0,0,10.18-4.41,2.85,2.85,0,0,0,0-4.57ZM56.67,39a21,21,0,0,1-9.28,4.09V40.56H43.75L42.58,42.9a22.93,22.93,0,0,1-9.61-5,23.7,23.7,0,0,1,8.55-4.74l6.53-.33a21.46,21.46,0,0,1,8.62,4,1.35,1.35,0,0,1,.55,1.09A1.33,1.33,0,0,1,56.67,39Z"/><path class="cls-2" d="M21.78,44.78l-1.93,1.94V40.93a5.3,5.3,0,0,0-1-3.17l-1.22-1.65L20.9,32.8l-2.12-2.12-3,3-1.87-2.55-2.42,1.78,4.88,6.64a2.37,2.37,0,0,1,.46,1.4v2.84l-4.42-4.4-2.12,2.12L16.85,48v3.79c0,.13,0,.25,0,.38V55h3V51.79a2.74,2.74,0,0,1,.79-1.62L23.9,46.9Z"/><circle class="cls-2" cx="25" cy="22" r="2"/><circle class="cls-2" cx="17" cy="26" r="2"/></g></svg>