<svg xmlns="http://www.w3.org/2000/svg" viewBox="0 0 68 68"><defs><style>.cls-1{fill:#d88a0f;}.cls-2{fill:#fff;}</style></defs><g id="icon"><circle class="cls-1" cx="34" cy="34" r="34"/><path class="cls-2" d="M37,51a5,5,0,0,0-5,5H42A5,5,0,0,0,37,51Z"/><path class="cls-2" d="M31.5,45A3.5,3.5,0,0,0,28,48.5h7A3.5,3.5,0,0,0,31.5,45Z"/><path class="cls-2" d="M58.11,45.75,56,40.48V31.17l-3.84-1.92-5.13-4c-.48-.58-3.89-4.66-5-5.89v-.08h-.07l-.14-.14a9.64,9.64,0,0,0-2.88-1.48,10,10,0,0,1-2.37-1.15,3.75,3.75,0,0,0-2.71-.65c-.61,0-1.44,0-1.66-.22-.89-.89-3,0-6.21,2.54l-4.33,2.59L19,23.37l-4.52,1.81-2,5,1.79,3.57-.77,3.81L10.71,39.4l1,6.35h10V38.23l1.31-2A2.36,2.36,0,0,0,25,36c1-1,1.95,0,3,0,2,0,4-1,6,1,.17.17.31.29.43.39l2,8.36H42A6,6,0,0,0,41,49H53a6,6,0,0,0-1-3.25ZM35.85,36.89,35,34.27l-2.06-3.14h-3c-1.74,0-4.79.12-4.92.12l-.38,0-4.34,6.5v6.48H13l-.69-4.14,2.48-1.65v0l3.5-1.75-.66-1.34L15.2,36.56l.61-3L14.09,30.1,15.35,27l4.51,1.8H26v-1.5H20.14l-3.41-1.37,3.09-1.23L22.48,22l4.3-2.57.08-.06c1.76-1.41,3.74-2.59,4.33-2.6a3.94,3.94,0,0,0,2.64.58,3.56,3.56,0,0,1,1.65.21A9.64,9.64,0,0,0,38.36,19l1.15.48c-2.23.28-5.14.69-5.62.76l-.16,0-3.15,2.1.84,1.24,2.85-1.9c2.3-.33,5.56-.77,7-.92,1.14,1.29,3.39,4,4.62,5.44l3.68,2.91-3.87,3.1h-.3c-.62-.81-2.47-2.4-8-5.89l-.19-.11H34v1.5h2.78a76.26,76.26,0,0,1,6.53,4.5H40v1.5h6.26l4.56-3.65.47.37,3.21,1.62v8.68l1.39,3.48H50.66a6,6,0,0,0-7.32,0H37.59Z"/></g></svg>