<?xml version="1.0" standalone="no"?>
<!DOCTYPE svg PUBLIC "-//W3C//DTD SVG 20010904//EN"
 "http://www.w3.org/TR/2001/REC-SVG-20010904/DTD/svg10.dtd">
<svg version="1.0" xmlns="http://www.w3.org/2000/svg"
 width="260.000000pt" height="260.000000pt" viewBox="0 0 260.000000 260.000000"
 preserveAspectRatio="xMidYMid meet">
<metadata>
Created by potrace 1.11, written by Peter Selinger 2001-2013
</metadata>
<g transform="translate(0.000000,260.000000) scale(0.100000,-0.100000)"
fill="#000000" stroke="none">
<path d="M1198 2568 c-432 -33 -817 -296 -1013 -692 -151 -307 -171 -659 -55
-969 l22 -58 29 62 c123 259 263 412 462 503 107 49 338 111 525 141 17 3 44
7 60 10 15 2 45 7 67 9 22 3 72 10 110 15 39 5 97 13 130 17 124 14 132 33 48
115 -48 46 -192 170 -228 198 -92 68 -277 175 -366 211 l-57 23 -113 -55
c-257 -123 -530 -330 -631 -475 -16 -24 -31 -43 -33 -43 -7 0 33 118 62 180
59 126 192 290 317 389 173 137 392 231 608 261 79 11 275 15 328 6 14 -2 46
-7 71 -10 62 -9 101 -16 121 -22 9 -3 25 -6 35 -8 39 -8 173 -56 238 -86 141
-64 290 -175 384 -284 30 -35 71 -56 71 -36 0 17 -104 152 -167 216 -268 274
-637 412 -1025 382z"/>
<path d="M1835 2019 c-119 -68 -276 -182 -265 -192 3 -2 48 -24 100 -49 184
-88 240 -152 205 -235 -19 -44 -94 -85 -229 -123 -271 -76 -328 -99 -365 -146
-39 -50 -33 -53 112 -52 121 2 294 -7 342 -16 11 -2 42 -7 70 -10 42 -6 143
-25 211 -40 101 -22 282 -85 393 -137 46 -21 85 -39 87 -39 4 0 22 66 28 105
21 134 24 359 6 441 -6 27 -18 60 -27 74 -32 49 -179 191 -278 269 -96 75
-280 201 -294 201 -4 0 -47 -23 -96 -51z"/>
<path d="M1248 1006 c-1 -2 -33 -6 -69 -10 -150 -14 -378 -63 -519 -113 -159
-55 -319 -143 -379 -207 l-25 -26 49 -70 c161 -237 460 -421 785 -485 86 -16
258 -21 350 -10 402 51 770 286 922 590 47 92 48 88 -41 128 -153 70 -422 160
-476 158 -2 0 -19 4 -37 10 -18 5 -60 12 -93 15 -33 4 -64 9 -70 12 -9 6 -390
13 -397 8z"/>
</g>
</svg>
