<svg xmlns="http://www.w3.org/2000/svg" viewBox="0 0 68 68"><defs><style>.cls-1{fill:#009020;}.cls-2{fill:#fff;}</style></defs><g id="background"><circle class="cls-1" cx="34" cy="34" r="34"/></g><g id="Layer_3" data-name="Layer 3"><path class="cls-2" d="M27.63,50V41.35l0-.06a4.72,4.72,0,0,0,2.67.81,4.8,4.8,0,0,0,4.8-4.81,4.18,4.18,0,0,0-.11-1,11.55,11.55,0,0,0,3.72-8.49V23.32A11.56,11.56,0,0,0,17,17.9a9.54,9.54,0,0,0-2.85,17.27,7.25,7.25,0,0,0-.31,2.12,7.52,7.52,0,0,0,7.51,7.52,7.31,7.31,0,0,0,1.93-.26V50Zm-6.31-6.69a6,6,0,0,1-6-6,6.11,6.11,0,0,1,.41-2.18L16,34.5l-.57-.32a8,8,0,0,1,2.24-14.9l.36-.07.16-.33a10.06,10.06,0,0,1,19.1,4.44v4.51A10.05,10.05,0,0,1,33.7,35.5l-.38.32.15.48a3.17,3.17,0,0,1,.17,1A3.3,3.3,0,0,1,28,39.61l-.35-.35V30H23.35v3.57l-1.13-.38a1.49,1.49,0,0,1-1-1.41V31.4H19.07v.66a5.26,5.26,0,0,0,1.55,3.74l2.63,2.63V43A5.93,5.93,0,0,1,21.32,43.31Z"/><path class="cls-2" d="M29,52a5,5,0,0,0-5,5H34A5,5,0,0,0,29,52Z"/><path class="cls-2" d="M48.53,47.15V43.38h7.68l-4.12-7.14h2.57l-3.73-6.46h2.59L47,18.5,40.49,29.78h2.58l-3.72,6.46h2.57l-4.13,7.14h7.69V46L45,46a6,6,0,0,0-6,6H51A6,6,0,0,0,48.53,47.15Zm-8.14-5.27,4.12-7.14H41.94l3.73-6.46H43.09L47,21.5l3.92,6.78H48.33l3.73,6.46H49.49l4.13,7.14Z"/><path class="cls-2" d="M34.5,46A3.5,3.5,0,0,0,31,49.5h7A3.5,3.5,0,0,0,34.5,46Z"/></g></svg>